HIERARCHY
ROOT hip
{
  OFFSET 0 0 0
  CHANNELS 6 Xposition Yposition Zposition Zrotation Yrotation Xrotation
  JOINT abdomen
  {
    OFFSET 0 20.6881 -0.73152
    CHANNELS 3 Zrotation Xrotation Yrotation
    JOINT chest
    {
      OFFSET 0 11.7043 -0.48768
      CHANNELS 3 Zrotation Xrotation Yrotation
      JOINT neck
      {
        OFFSET 0 22.1894 -2.19456
        CHANNELS 3 Zrotation Xrotation Yrotation
        JOINT head
        {
          OFFSET -0.24384 7.07133 1.2192
          CHANNELS 3 Zrotation Xrotation Yrotation
          JOINT leftEye
          {
            OFFSET 4.14528 8.04674 8.04672
            CHANNELS 3 Zrotation Xrotation Yrotation
            End Site
            {
              OFFSET 1 0 0
            }
          }
          JOINT rightEye
          {
            OFFSET -3.6576 8.04674 8.04672
            CHANNELS 3 Zrotation Xrotation Yrotation
            End Site
            {
              OFFSET 1 0 0
            }
          }
        }
      }
      JOINT rCollar
      {
        OFFSET -2.68224 19.2634 -4.8768
        CHANNELS 3 Zrotation Xrotation Yrotation
        JOINT rShldr
        {
          OFFSET -8.77824 -1.95073 1.46304
          CHANNELS 3 Zrotation Xrotation Yrotation
          JOINT rForeArm
          {
            OFFSET -28.1742 -1.7115 0.48768
            CHANNELS 3 Zrotation Xrotation Yrotation
            JOINT rHand
            {
              OFFSET -22.5879 0.773209 7.07136
              CHANNELS 3 Zrotation Xrotation Yrotation
              JOINT rThumb1
              {
                OFFSET -1.2192 -0.487915 3.41376
                CHANNELS 3 Zrotation Xrotation Yrotation
                JOINT rThumb2
                {
                  OFFSET -3.37035 -0.52449 3.41376
                  CHANNELS 3 Zrotation Xrotation Yrotation
                  End Site
                  {
                    OFFSET -1.78271 -1.18214 1.43049
                  }
                }
              }
              JOINT rIndex1
              {
                OFFSET -7.75947 0.938293 5.60832
                CHANNELS 3 Zrotation Xrotation Yrotation
                JOINT rIndex2
                {
                  OFFSET -2.54057 -0.884171 1.56538
                  CHANNELS 3 Zrotation Xrotation Yrotation
                  End Site
                  {
                    OFFSET -1.62519 -0.234802 1.16502
                  }
                }
              }
              JOINT rMid1
              {
                OFFSET -8.24714 1.18213 3.41376
                CHANNELS 3 Zrotation Xrotation Yrotation
                JOINT rMid2
                {
                  OFFSET -3.10165 -0.590103 1.0647
                  CHANNELS 3 Zrotation Xrotation Yrotation
                  End Site
                  {
                    OFFSET -2.48547 -0.328903 0.83742
                  }
                }
              }
              JOINT rRing1
              {
                OFFSET -8.82822 0.546677 1.51678
                CHANNELS 3 Zrotation Xrotation Yrotation
                JOINT rRing2
                {
                  OFFSET -2.60934 -0.819778 -0.0198488
                  CHANNELS 3 Zrotation Xrotation Yrotation
                  End Site
                  {
                    OFFSET -2.33842 -0.294052 0.168128
                  }
                }
              }
              JOINT rPinky1
              {
                OFFSET -8.27202 -0.0477905 -0.4584
                CHANNELS 3 Zrotation Xrotation Yrotation
                JOINT rPinky2
                {
                  OFFSET -1.82734 -0.647385 -0.700984
                  CHANNELS 3 Zrotation Xrotation Yrotation
                  End Site
                  {
                    OFFSET -1.69225 -0.51767 -0.607171
                  }
                }
              }
            }
          }
        }
      }
      JOINT lCollar
      {
        OFFSET 2.68224 19.2634 -4.8768
        CHANNELS 3 Zrotation Xrotation Yrotation
        JOINT lShldr
        {
          OFFSET 8.77824 -1.95073 1.46304
          CHANNELS 3 Zrotation Xrotation Yrotation
          JOINT lForeArm
          {
            OFFSET 28.1742 -1.7115 0.48768
            CHANNELS 3 Zrotation Xrotation Yrotation
            JOINT lHand
            {
              OFFSET 22.5879 0.773209 7.07136
              CHANNELS 3 Zrotation Xrotation Yrotation
              JOINT lThumb1
              {
                OFFSET 1.2192 -0.487915 3.41376
                CHANNELS 3 Zrotation Xrotation Yrotation
                JOINT lThumb2
                {
                  OFFSET 3.37035 -0.52449 3.41376
                  CHANNELS 3 Zrotation Xrotation Yrotation
                  End Site
                  {
                    OFFSET 1.78271 -1.18214 1.43049
                  }
                }
              }
              JOINT lIndex1
              {
                OFFSET 7.75947 0.938293 5.60832
                CHANNELS 3 Zrotation Xrotation Yrotation
                JOINT lIndex2
                {
                  OFFSET 2.54057 -0.884171 1.56538
                  CHANNELS 3 Zrotation Xrotation Yrotation
                  End Site
                  {
                    OFFSET 1.62519 -0.234802 1.16502
                  }
                }
              }
              JOINT lMid1
              {
                OFFSET 8.24714 1.18213 3.41376
                CHANNELS 3 Zrotation Xrotation Yrotation
                JOINT lMid2
                {
                  OFFSET 3.10165 -0.590103 1.0647
                  CHANNELS 3 Zrotation Xrotation Yrotation
                  End Site
                  {
                    OFFSET 2.48547 -0.328903 0.83742
                  }
                }
              }
              JOINT lRing1
              {
                OFFSET 8.82822 0.546677 1.51678
                CHANNELS 3 Zrotation Xrotation Yrotation
                JOINT lRing2
                {
                  OFFSET 2.60934 -0.819778 -0.0198488
                  CHANNELS 3 Zrotation Xrotation Yrotation
                  End Site
                  {
                    OFFSET 2.33842 -0.294052 0.168128
                  }
                }
              }
              JOINT lPinky1
              {
                OFFSET 8.27202 -0.0477905 -0.4584
                CHANNELS 3 Zrotation Xrotation Yrotation
                JOINT lPinky2
                {
                  OFFSET 1.82734 -0.647385 -0.700984
                  CHANNELS 3 Zrotation Xrotation Yrotation
                  End Site
                  {
                    OFFSET 1.69225 -0.51767 -0.607171
                  }
                }
              }
            }
          }
        }
      }
    }
  }
  JOINT rButtock
  {
    OFFSET -8.77824 4.35084 1.2192
    CHANNELS 3 Zrotation Xrotation Yrotation
    JOINT rThigh
    {
      OFFSET 0 -1.70687 -2.19456
      CHANNELS 3 Zrotation Xrotation Yrotation
      JOINT rShin
      {
        OFFSET 0 -36.8199 0.73152
        CHANNELS 3 Zrotation Xrotation Yrotation
        JOINT rFoot
        {
          OFFSET 0.73152 -45.1104 -5.12064
          CHANNELS 3 Zrotation Xrotation Yrotation
          End Site
          {
            OFFSET -1.1221 -3.69964 12.103
          }
        }
      }
    }
  }
  JOINT lButtock
  {
    OFFSET 8.77824 4.35084 1.2192
    CHANNELS 3 Zrotation Xrotation Yrotation
    JOINT lThigh
    {
      OFFSET 0 -1.70687 -2.19456
      CHANNELS 3 Zrotation Xrotation Yrotation
      JOINT lShin
      {
        OFFSET 0 -36.8199 0.73152
        CHANNELS 3 Zrotation Xrotation Yrotation
        JOINT lFoot
        {
          OFFSET -0.73152 -45.1104 -5.12064
          CHANNELS 3 Zrotation Xrotation Yrotation
          End Site
          {
            OFFSET 1.1221 -3.69964 12.103
          }
        }
      }
    }
  }
}
MOTION
Frames:	8
Frame Time:	0.00833333
-21.317800000000002 65.4466 -106.20190000000001 -175.414836 54.831623 -177.861308 1.936422 4.618842 165.203365 -4.195856 2.949284 -169.29575 0.5721 24.807165 96.568553 -34.05572 9.591226 -129.612485 -6.568449 0.731396 -12.693774 16.052248 3.393092 23.725592 1.931874 -20.157994 -1.136195 39.879121 46.575506 23.510075 -172.453758 67.588106 43.260467 139.352909 -44.859181 127.384016 -172.300485 3.519548 89.933383 -154.685813 3.199045 68.280726 -13.752862 -9.614952 -29.88208 -166.047601 -29.047426 89.142989 17.522013 -30.837076 4.668015 23.292716 -82.022637 10.198773 -139.149936 -69.100993 -141.700883 133.129259 67.677426 -121.76915 -81.061256 -47.750972 -78.373216 -43.176399 -60.837622 -51.896896 4.126606 -72.641234 24.340031 -40.598238 17.767651 60.599373 -81.167604 79.637154 -20.30132 18.129937 -42.076169 14.276195 -176.986021 -37.695605 -90.063169 -27.636777 -31.676308 -0.873242 4.173944 44.093903 -14.711339 4.505274 -45.747886 2.48915 171.778212 -51.864649 -146.947238 164.322 -10.327469 -138.290272 139.549097 -3.52152 168.034106 130.920661 -4.576474 170.629487 8.623829 -30.564771 2.673483 132.103277 -8.715835 110.530478 25.069783 10.357501 28.801032 -80.005805 -17.225541 -128.569581 -72.362911 18.05923 -12.149379 155.344255 21.446023 -81.1077 25.776584 0.074886 14.077819 -5.119791 -31.003966 -13.679471 -69.055781 57.728624 -8.025101 -179.33707 -7.19549 -95.358057
-21.2317 65.2282 -106.6495 -175.589772 55.307386 -178.213291 2.140598 5.465023 174.585122 -3.13683 4.068744 -178.180669 -21.253969 26.926323 -83.071792 37.793113 11.725227 45.46028 -6.260576 0.649087 -11.826814 14.897879 2.88493 21.80285 -133.182646 50.970695 134.457798 -170.003776 48.195193 128.74113 -107.06797 -52.858569 108.594905 76.802892 -59.337618 66.369717 162.237685 -22.565344 89.80507 -43.221187 -33.404312 -14.927654 -161.016656 -29.270733 150.138042 -35.318157 75.729082 20.251292 -12.459633 25.492625 14.999196 -7.947952 53.421604 -0.400085 -91.500945 -77.440775 -90.468733 -104.374762 -49.326591 -124.613687 -130.883806 -24.981441 -125.181766 -28.479974 -49.749498 -40.664379 147.506023 29.778067 -154.241483 88.36309 24.814593 -55.081966 0.00702 -7.038888 131.937459 138.950532 32.619222 -122.540063 -3.889422 9.54647 4.224679 -81.5545 -69.632029 -53.592703 0.629361 32.222191 -7.3597 -29.283601 -53.881199 -21.213812 155.048929 6.015748 -142.586776 178.99545 -53.906768 -137.719166 -6.270944 13.144747 4.037073 -164.457935 -85.448264 -164.935617 -4.970993 45.17215 -23.672701 131.967693 33.74837 138.844196 -139.424071 68.157105 -37.22833 131.545113 17.517069 71.780357 71.240595 23.67725 -159.116174 1.045855 -47.511237 92.589905 13.703364 -0.302484 5.617455 13.371761 -34.292209 -154.819037 26.41688 -82.974975 113.607718 49.943785 -34.087235 111.811986
-21.1608 65.0738 -107.06770000000002 -175.757817 55.714906 -178.525289 2.232045 11.032172 -2.896318 2.773779 -9.328964 -0.009499 -5.488514 35.533425 168.585702 -11.616677 42.68468 158.766782 -5.298534 0.53809 -11.589407 14.11652 2.512702 20.0886 0.221957 -16.616558 -1.907703 17.937229 60.687264 44.486489 66.05626 82.867431 166.58302 142.966107 -40.101991 130.358213 4.752058 -18.039273 -1.530385 -123.277158 -35.914708 131.320537 -160.805725 -36.244459 150.061344 -12.214853 -88.778845 -70.676794 -10.974124 23.564286 13.34068 -141.732467 61.337695 133.154428 -80.827064 66.896122 80.025732 19.070364 -20.877724 22.206006 -126.804688 -34.706303 -120.026854 -20.853126 -48.029169 -31.474776 156.584931 -49.70792 -173.150439 72.844527 -37.860794 38.462801 149.089872 -31.186445 65.352215 24.856771 -76.137172 34.582532 -5.064471 4.974724 5.036196 -10.32238 -48.331502 -6.531649 148.952179 -45.808676 -131.912253 149.745028 -56.782312 -122.957377 161.079946 -12.542302 -145.889571 160.687309 -11.550146 -141.715139 139.023613 -4.433399 171.261029 129.817561 -22.551193 171.219284 144.316717 14.289678 150.551296 3.492161 13.676699 -29.22253 125.47603 69.466482 29.339977 172.102278 27.386196 19.389278 61.283842 40.605044 -37.060716 -117.10391 5.829351 32.433349 -126.137319 70.210311 -35.199589 -176.619512 41.240007 0.157844 -69.879079 70.844715 -31.905907 -161.167031 41.56512 -108.459259
-21.113100000000003 64.9536 -107.441 -175.92827 56.055012 -178.795589 1.392937 6.983261 170.670064 -3.508465 4.457444 -173.242597 -19.588683 30.915382 -100.485058 36.204631 21.255984 58.192373 -3.898829 0.397216 -11.630133 13.621663 2.220073 18.429958 -160.100298 -73.811368 177.415529 -178.294303 33.300081 -138.14531 90.073729 78.571342 142.52072 146.011004 -36.176094 133.055395 169.834843 -15.906103 90.986482 -137.877641 27.733133 66.69224 -11.338815 1.621887 -20.909959 -179.100964 -31.303638 85.685158 -153.734667 3.849037 135.947002 14.186692 -4.050399 6.832655 -127.997732 -74.865524 -128.907419 109.8206 69.328682 -97.952905 -19.062044 -26.240611 -9.34873 -150.164957 27.83461 -156.411017 150.960682 17.843538 -157.891835 -56.109562 -55.153986 -105.222488 -39.798511 -22.578453 -123.741206 20.190645 -16.701224 3.793022 8.609238 16.894692 0.944777 -146.394607 -59.903691 -89.788326 -153.075824 -80.576943 -93.488633 -153.259408 -62.605442 -69.247277 -29.341966 -71.320952 -3.148265 155.613832 16.279731 -134.239621 -5.737673 -0.878073 5.260099 -157.055137 -81.343806 -153.087227 90.642596 -56.508175 89.226467 179.346674 24.816233 142.647829 158.850483 71.898318 6.263246 158.425758 21.937687 -111.735005 -78.746466 -0.493765 -153.961066 170.917022 59.984957 120.13474 6.018741 1.664649 1.503864 23.201045 -34.326029 90.967034 81.157981 32.824051 -167.270456 41.104482 -25.562494 97.535407
-21.0966 64.8466 -107.75779999999999 -176.090202 56.325548 -179.005512 0.900322 7.575905 167.736815 -3.918506 4.430938 -169.849968 2.582652 28.73314 106.71723 -33.069344 16.450555 -142.704287 -2.188832 0.224297 -11.700325 13.297655 1.960111 16.697673 0.273795 -66.406381 -14.285281 -101.491446 -46.648582 -149.313416 -169.378871 35.770058 -90.394204 -3.241338 56.173775 -2.531182 -177.945153 -3.521072 90.918379 -163.783831 12.668753 82.670934 -25.174035 38.699281 -2.266289 1.720429 -4.128714 17.509649 -15.54949 31.127353 16.874044 -13.893938 54.854206 5.32359 -95.592951 66.739117 96.285977 151.638685 -63.232898 128.058395 -1.857172 32.317233 13.063963 -31.867846 -43.994576 -23.741895 51.877533 67.429787 -55.201386 -53.355243 4.211778 -60.964558 -55.944066 16.022239 -105.013142 26.304745 4.975154 -4.647374 -9.700552 -6.587763 6.211467 9.032023 -20.546764 -7.518628 35.781082 42.735239 -27.813801 172.949865 4.759971 -112.060462 163.997434 -20.482035 -147.194797 171.037845 -40.675187 -141.999808 137.545536 -11.012067 171.945271 121.778845 -55.066774 163.996262 146.441827 16.964863 149.615533 -0.399964 -29.540299 -15.740894 163.060484 71.090157 3.25786 154.461506 19.699991 130.582014 75.748619 -47.232601 162.577677 141.491707 -49.052508 -116.651414 5.001972 2.345058 1.345011 27.608757 -35.286471 -103.191996 -86.92971 -37.272811 -176.137307 -43.675947 15.942478 -74.770101
-21.116699999999998 64.74109999999999 -108.0101 -176.225276 56.513473 -179.135673 1.072453 12.757987 -1.085521 2.633391 -9.960772 -0.523754 -16.680393 21.731431 -39.184068 28.216979 -13.143588 3.712051 -0.280199 0.028701 -11.696713 13.1054 1.707703 14.785231 0.458185 -31.208276 -6.395729 55.677502 12.331802 6.792231 160.820502 31.288678 60.072824 150.139479 -29.84868 136.680919 -176.223508 -1.954727 90.458304 -174.186994 6.055509 90.271944 -158.984742 -17.928752 141.076096 -9.324729 57.903147 -13.484962 25.046432 -46.631891 4.817227 -157.950843 34.378181 132.018371 -17.320642 5.886956 8.428529 -124.450476 36.420364 164.394111 -58.754399 -53.141396 -45.287655 -148.800951 62.429165 -157.564672 157.400168 -30.039433 -168.051162 -130.012752 18.028912 174.927326 1.836757 25.070087 -104.834707 14.322725 -55.548986 16.253645 -8.526803 -7.657407 6.14665 126.238173 -2.607305 -86.417495 -151.372828 -79.380556 -98.343892 -174.260208 -60.161282 -92.405307 -160.227597 -78.478079 -128.457981 20.229714 41.892661 -21.256722 138.037837 -3.74242 175.702595 -32.085051 31.839915 8.507316 6.170665 -14.975869 -0.246866 -38.272377 40.739808 24.966459 -140.969714 64.351728 -32.106908 131.233298 9.119278 -82.961341 -83.667287 11.957586 -120.836638 -148.265401 1.420962 160.503798 -176.217326 73.02359 -0.908987 -150.052784 33.884309 -57.117954 -83.890249 30.025587 -3.640015 163.359667 -45.67151 -132.846988
-21.1771 64.6316 -108.1964 -176.322015 56.637222 -179.176968 0.649364 13.136956 -0.098945 2.645449 -10.115255 -1.173543 -7.803436 38.271805 -166.565766 8.20835 44.102348 123.004474 1.697787 -0.173027 -11.637372 12.98404 1.44607 12.656683 -161.395235 -34.365375 168.472707 -57.243776 -43.864698 -56.58121 -24.040919 -5.398186 -132.38465 90.234461 -58.738541 78.404973 -3.468894 -8.330537 -1.249784 -15.968967 27.245365 28.554036 -156.796221 -71.304717 158.821366 -162.119021 -80.55663 125.072908 -163.533837 -23.686857 139.445524 -2.833414 19.851181 15.995714 -15.543853 -38.632159 -6.157201 49.997963 61.31058 -21.647723 -147.682023 -19.410649 -134.69515 114.705941 79.586605 -71.569968 149.24497 24.554768 -155.201865 -90.321832 -35.616474 -123.313453 -90.444335 33.428945 -89.141955 42.732245 33.070614 -22.893373 166.464271 -3.806975 -95.103964 150.484074 -9.634963 -98.656739 33.323097 38.602376 -20.567237 172.319396 -2.331253 -108.109541 124.483509 54.228003 -114.218799 168.868089 -25.17291 -149.920942 -7.25623 5.9168 -0.880689 62.995365 75.517878 -58.695632 26.747356 -43.87136 21.237448 169.651687 16.527399 124.106502 116.782018 63.914329 31.543675 178.802878 20.28936 -176.602942 -69.343016 -49.486477 168.766155 -100.634386 43.675719 22.875841 -176.279832 72.853968 -1.206691 -149.792918 32.858033 -71.572203 -86.636948 28.929758 175.431709 -96.997858 51.826817 -19.921631
-21.2785 64.51679999999999 -108.3192 -176.367035 56.711872 -179.124674 0.25719 8.67676 178.942218 -2.917673 5.404677 179.840877 -16.676061 34.090638 -108.601523 35.44474 23.871722 62.107838 3.659067 -0.370717 -11.566451 12.907514 1.165421 10.275419 -1.597792 -11.224824 -3.205953 -117.938982 -5.060496 157.208561 47.430678 -36.021503 -104.177022 157.363043 -16.415626 142.966544 -24.244914 11.930757 3.070978 59.193359 -37.561131 0.471561 -157.218329 -14.877863 139.157254 5.876187 -66.681964 -38.265385 -139.689072 23.622269 129.05286 -126.516587 41.230255 127.912648 -146.014527 42.981915 154.586492 38.684907 -75.401706 35.678456 -72.260426 -55.773911 -55.666565 -134.781405 -0.162375 -138.1482 123.667684 59.831874 -127.882546 -72.804481 -18.335657 -84.538009 10.815853 -15.468509 -101.181087 14.741117 -66.025337 20.775388 170.084249 -6.516828 -95.232865 -152.437476 -63.960811 -99.843809 155.079469 -18.528867 -127.361154 45.092058 66.080321 -33.09624 -65.086471 -83.280393 -37.552587 -9.418529 -4.049277 -3.414344 -7.4609 -1.347961 0.272842 1.287939 -44.474962 1.131244 147.488364 10.66542 147.886411 150.205731 -29.234607 154.243569 106.716929 60.542728 35.778483 -174.080252 21.699032 -4.829594 61.915341 63.436893 -133.907474 29.758658 29.804493 59.35485 160.854949 72.029467 14.986236 -140.25767 28.581321 -104.188145 -90.088536 -10.952251 -29.902925 -2.527872 58.942549 133.667219
